<?xml version="1.0" encoding="UTF-8"?>
<svg xmlns="http://www.w3.org/2000/svg" viewBox="0 0 400 300" width="400" height="300">
  <defs>
    <linearGradient id="bgGrad" x1="0%" y1="0%" x2="100%" y2="100%">
      <stop offset="0%" stop-color="#F8FAFC" />
      <stop offset="100%" stop-color="#E2E8F0" />
    </linearGradient>
    <linearGradient id="metalSteel" x1="0%" y1="0%" x2="100%" y2="100%">
      <stop offset="0%" stop-color="#E2E8F0" />
      <stop offset="50%" stop-color="#94A3B8" />
      <stop offset="100%" stop-color="#64748B" />
    </linearGradient>
    <linearGradient id="metalDark" x1="0%" y1="0%" x2="100%" y2="100%">
      <stop offset="0%" stop-color="#475569" />
      <stop offset="100%" stop-color="#0F172A" />
    </linearGradient>
    <filter id="shadow" x="-10%" y="-10%" width="120%" height="120%">
      <feDropShadow dx="0" dy="8" stdDeviation="6" flood-color="#0F172A" flood-opacity="0.18" />
    </filter>
  </defs>

  <!-- Studio Neutral Background -->
  <rect width="400" height="300" fill="url(#bgGrad)" />
  
  <!-- Subtle Floor Reflection Line -->
  <ellipse cx="200" cy="245" rx="140" ry="16" fill="#CBD5E1" opacity="0.6" />

  <!-- Equipment Graphic Group with Shadow -->
  <g filter="url(#shadow)">
    
      <!-- Piso Metálico (Galvanized perforated anti-slip scaffold plank) -->
      <rect x="50" y="100" width="300" height="55" rx="6" fill="url(#metalSteel)" stroke="#334155" stroke-width="3" />
      <!-- Stiffening Ribs -->
      <line x1="50" y1="115" x2="350" y2="115" stroke="#64748B" stroke-width="2" />
      <line x1="50" y1="140" x2="350" y2="140" stroke="#64748B" stroke-width="2" />
      <!-- Anti-slip Perforations -->
      
        <circle cx="80" cy="127" r="5" fill="#1E293B" />
        <circle cx="80" cy="127" r="3" fill="#94A3B8" />
      
        <circle cx="114" cy="127" r="5" fill="#1E293B" />
        <circle cx="114" cy="127" r="3" fill="#94A3B8" />
      
        <circle cx="148" cy="127" r="5" fill="#1E293B" />
        <circle cx="148" cy="127" r="3" fill="#94A3B8" />
      
        <circle cx="182" cy="127" r="5" fill="#1E293B" />
        <circle cx="182" cy="127" r="3" fill="#94A3B8" />
      
        <circle cx="216" cy="127" r="5" fill="#1E293B" />
        <circle cx="216" cy="127" r="3" fill="#94A3B8" />
      
        <circle cx="250" cy="127" r="5" fill="#1E293B" />
        <circle cx="250" cy="127" r="3" fill="#94A3B8" />
      
        <circle cx="284" cy="127" r="5" fill="#1E293B" />
        <circle cx="284" cy="127" r="3" fill="#94A3B8" />
      
        <circle cx="318" cy="127" r="5" fill="#1E293B" />
        <circle cx="318" cy="127" r="3" fill="#94A3B8" />
      
      <!-- End Locking Hooks for Scaffold Ledger -->
      <path d="M50 100 L35 110 L35 145 L50 155 M350 100 L365 110 L365 145 L350 155" fill="none" stroke="#334155" stroke-width="6" stroke-linecap="round" />
    
  </g>

  <!-- Top Brand Header Bar -->
  <rect x="0" y="0" width="400" height="32" fill="#332929" />
  <text x="16" y="21" font-family="-apple-system, BlinkMacSystemFont, 'Segoe UI', Roboto, sans-serif" font-size="11" font-weight="900" fill="#FFFFFF" letter-spacing="1">PILAR EQUIPAMENTOS</text>
  <text x="384" y="21" font-family="-apple-system, BlinkMacSystemFont, 'Segoe UI', Roboto, sans-serif" font-size="10" font-weight="700" fill="#FCA5A5" text-anchor="end">ANDAIMES / ELEVAÇÃO</text>

  <!-- Bottom Equipment Title Overlay -->
  <rect x="0" y="260" width="400" height="40" fill="#332929" />
  <text x="200" y="285" font-family="-apple-system, BlinkMacSystemFont, 'Segoe UI', Roboto, sans-serif" font-size="12" font-weight="800" fill="#FFFFFF" text-anchor="middle">PISO METÁLICO</text>
</svg>