<?xml version="1.0" encoding="UTF-8"?>
<svg xmlns="http://www.w3.org/2000/svg" viewBox="0 0 400 300" width="400" height="300">
  <defs>
    <linearGradient id="bgGrad" x1="0%" y1="0%" x2="100%" y2="100%">
      <stop offset="0%" stop-color="#F8FAFC" />
      <stop offset="100%" stop-color="#E2E8F0" />
    </linearGradient>
    <linearGradient id="metalSteel" x1="0%" y1="0%" x2="100%" y2="100%">
      <stop offset="0%" stop-color="#E2E8F0" />
      <stop offset="50%" stop-color="#94A3B8" />
      <stop offset="100%" stop-color="#64748B" />
    </linearGradient>
    <linearGradient id="metalDark" x1="0%" y1="0%" x2="100%" y2="100%">
      <stop offset="0%" stop-color="#475569" />
      <stop offset="100%" stop-color="#0F172A" />
    </linearGradient>
    <filter id="shadow" x="-10%" y="-10%" width="120%" height="120%">
      <feDropShadow dx="0" dy="8" stdDeviation="6" flood-color="#0F172A" flood-opacity="0.18" />
    </filter>
  </defs>

  <!-- Studio Neutral Background -->
  <rect width="400" height="300" fill="url(#bgGrad)" />
  
  <!-- Subtle Floor Reflection Line -->
  <ellipse cx="200" cy="245" rx="140" ry="16" fill="#CBD5E1" opacity="0.6" />

  <!-- Equipment Graphic Group with Shadow -->
  <g filter="url(#shadow)">
    
      <!-- Betoneira 400L Elétrica (400L mixer + electric motor box + hand tilting wheel) -->
      <path d="M100 190 L300 190 L280 215 L120 215 Z" fill="#334155" />
      <circle cx="130" cy="215" r="22" fill="#0F172A" stroke="#CBD5E1" stroke-width="4" />
      <circle cx="270" cy="215" r="22" fill="#0F172A" stroke="#CBD5E1" stroke-width="4" />
      <!-- Tilting Drum 400L (Electric Yellow Menegotti) -->
      <path d="M150 150 C150 90 250 90 250 150 L230 180 L170 180 Z" fill="#F59E0B" stroke="#B45309" stroke-width="3" />
      <ellipse cx="200" cy="145" rx="55" ry="12" fill="none" stroke="#1E293B" stroke-width="6" stroke-dasharray="6 3" />
      <!-- Hand Tilting Steering Wheel (Left side) -->
      <circle cx="110" cy="130" r="24" fill="none" stroke="#DC2626" stroke-width="5" />
      <!-- Electric Motor Box -->
      <rect x="270" y="115" width="50" height="65" rx="6" fill="#0284C7" />
    
  </g>

  <!-- Top Brand Header Bar -->
  <rect x="0" y="0" width="400" height="32" fill="#332929" />
  <text x="16" y="21" font-family="-apple-system, BlinkMacSystemFont, 'Segoe UI', Roboto, sans-serif" font-size="11" font-weight="900" fill="#FFFFFF" letter-spacing="1">PILAR EQUIPAMENTOS</text>
  <text x="384" y="21" font-family="-apple-system, BlinkMacSystemFont, 'Segoe UI', Roboto, sans-serif" font-size="10" font-weight="700" fill="#FCA5A5" text-anchor="end">CONCRETAGEM E COMPACTAÇÃO</text>

  <!-- Bottom Equipment Title Overlay -->
  <rect x="0" y="260" width="400" height="40" fill="#332929" />
  <text x="200" y="285" font-family="-apple-system, BlinkMacSystemFont, 'Segoe UI', Roboto, sans-serif" font-size="12" font-weight="800" fill="#FFFFFF" text-anchor="middle">BETONEIRA 400L ELÉTRICA</text>
</svg>