<?xml version="1.0" encoding="UTF-8"?>
<svg xmlns="http://www.w3.org/2000/svg" viewBox="0 0 400 300" width="400" height="300">
  <defs>
    <linearGradient id="bgGrad" x1="0%" y1="0%" x2="100%" y2="100%">
      <stop offset="0%" stop-color="#F8FAFC" />
      <stop offset="100%" stop-color="#E2E8F0" />
    </linearGradient>
    <linearGradient id="metalSteel" x1="0%" y1="0%" x2="100%" y2="100%">
      <stop offset="0%" stop-color="#E2E8F0" />
      <stop offset="50%" stop-color="#94A3B8" />
      <stop offset="100%" stop-color="#64748B" />
    </linearGradient>
    <linearGradient id="metalDark" x1="0%" y1="0%" x2="100%" y2="100%">
      <stop offset="0%" stop-color="#475569" />
      <stop offset="100%" stop-color="#0F172A" />
    </linearGradient>
    <filter id="shadow" x="-10%" y="-10%" width="120%" height="120%">
      <feDropShadow dx="0" dy="8" stdDeviation="6" flood-color="#0F172A" flood-opacity="0.18" />
    </filter>
  </defs>

  <!-- Studio Neutral Background -->
  <rect width="400" height="300" fill="url(#bgGrad)" />
  
  <!-- Subtle Floor Reflection Line -->
  <ellipse cx="200" cy="245" rx="140" ry="16" fill="#CBD5E1" opacity="0.6" />

  <!-- Equipment Graphic Group with Shadow -->
  <g filter="url(#shadow)">
    
      <!-- Brocas SDS Plus (Grooved Shank + Double Flute + Cross Tip) -->
      <g transform="translate(140, 40)">
        <rect x="18" y="0" width="14" height="180" rx="3" fill="url(#metalSteel)" />
        <rect x="18" y="140" width="14" height="40" rx="2" fill="#334155" />
        <!-- SDS Grooves -->
        <rect x="22" y="145" width="6" height="15" rx="2" fill="#0F172A" />
        <rect x="22" y="165" width="6" height="10" rx="2" fill="#0F172A" />
        <!-- Spiral Flutes -->
        <path d="M18 10 Q25 20 32 30 T18 50 T32 70 T18 90 T32 110 T18 130" fill="none" stroke="#475569" stroke-width="5" />
        <!-- Carbide Cross Tip -->
        <path d="M15 -5 L25 -12 L35 -5 L25 2 Z" fill="#DC2626" stroke="#991B1B" stroke-width="1.5" />
      </g>
      <g transform="translate(210, 60)">
        <rect x="18" y="0" width="12" height="160" rx="3" fill="url(#metalSteel)" />
        <rect x="18" y="120" width="12" height="40" rx="2" fill="#334155" />
        <rect x="21" y="125" width="6" height="12" rx="2" fill="#0F172A" />
        <path d="M18 10 Q24 20 30 30 T18 50 T30 70 T18 90 T30 110" fill="none" stroke="#475569" stroke-width="4" />
        <path d="M15 -5 L24 -12 L33 -5 L24 2 Z" fill="#DC2626" stroke="#991B1B" stroke-width="1.5" />
      </g>
    
  </g>

  <!-- Top Brand Header Bar -->
  <rect x="0" y="0" width="400" height="32" fill="#332929" />
  <text x="16" y="21" font-family="-apple-system, BlinkMacSystemFont, 'Segoe UI', Roboto, sans-serif" font-size="11" font-weight="900" fill="#FFFFFF" letter-spacing="1">PILAR EQUIPAMENTOS</text>
  <text x="384" y="21" font-family="-apple-system, BlinkMacSystemFont, 'Segoe UI', Roboto, sans-serif" font-size="10" font-weight="700" fill="#FCA5A5" text-anchor="end">ACESSÓRIOS</text>

  <!-- Bottom Equipment Title Overlay -->
  <rect x="0" y="260" width="400" height="40" fill="#332929" />
  <text x="200" y="285" font-family="-apple-system, BlinkMacSystemFont, 'Segoe UI', Roboto, sans-serif" font-size="12" font-weight="800" fill="#FFFFFF" text-anchor="middle">BROCAS SDS PLUS</text>
</svg>